<mxfile host="app.diagrams.net" agent="Mozilla/5.0 (Macintosh; Intel Mac OS X 10_15_7) AppleWebKit/537.36 (KHTML, like Gecko) Chrome/127.0.0.0 Safari/537.36" version="24.7.10">
  <diagram name="第 1 页" id="V1dfw5ZvCygMVs_ZKmEv">
    <mxGraphModel dx="1242" dy="786" grid="0" gridSize="10" guides="1" tooltips="1" connect="1" arrows="1" fold="1" page="1" pageScale="1" pageWidth="827" pageHeight="1169" math="0" shadow="0">
      <root>
        <mxCell id="0" />
        <mxCell id="1" parent="0" />
        <mxCell id="wV4hB_RL8rZMmwDnRBt9-4" value="" style="edgeStyle=orthogonalEdgeStyle;rounded=0;orthogonalLoop=1;jettySize=auto;html=1;" parent="1" source="wV4hB_RL8rZMmwDnRBt9-1" target="wV4hB_RL8rZMmwDnRBt9-3" edge="1">
          <mxGeometry relative="1" as="geometry" />
        </mxCell>
        <mxCell id="wV4hB_RL8rZMmwDnRBt9-1" value="&lt;span style=&quot;font-size: 16px;&quot;&gt;dnn_layer_bottom_half&lt;/span&gt;" style="ellipse;whiteSpace=wrap;html=1;" parent="1" vertex="1">
          <mxGeometry x="250" y="30" width="200" height="70" as="geometry" />
        </mxCell>
        <mxCell id="wV4hB_RL8rZMmwDnRBt9-6" value="" style="edgeStyle=orthogonalEdgeStyle;rounded=0;orthogonalLoop=1;jettySize=auto;html=1;" parent="1" source="wV4hB_RL8rZMmwDnRBt9-2" target="wV4hB_RL8rZMmwDnRBt9-5" edge="1">
          <mxGeometry relative="1" as="geometry" />
        </mxCell>
        <mxCell id="wV4hB_RL8rZMmwDnRBt9-2" value="&lt;font style=&quot;font-size: 16px;&quot;&gt;matmul&lt;/font&gt;&lt;div style=&quot;font-size: 16px;&quot;&gt;&lt;font style=&quot;font-size: 16px;&quot;&gt;prelu&lt;/font&gt;&lt;/div&gt;" style="ellipse;whiteSpace=wrap;html=1;" parent="1" vertex="1">
          <mxGeometry x="90" y="40" width="110" height="70" as="geometry" />
        </mxCell>
        <mxCell id="wV4hB_RL8rZMmwDnRBt9-10" style="edgeStyle=orthogonalEdgeStyle;rounded=0;orthogonalLoop=1;jettySize=auto;html=1;exitX=0.5;exitY=1;exitDx=0;exitDy=0;" parent="1" source="wV4hB_RL8rZMmwDnRBt9-3" target="wV4hB_RL8rZMmwDnRBt9-7" edge="1">
          <mxGeometry relative="1" as="geometry">
            <Array as="points">
              <mxPoint x="349" y="240" />
              <mxPoint x="242" y="240" />
            </Array>
          </mxGeometry>
        </mxCell>
        <mxCell id="wV4hB_RL8rZMmwDnRBt9-3" value="&lt;font style=&quot;font-size: 16px;&quot;&gt;matmul&lt;/font&gt;&lt;div style=&quot;font-size: 16px;&quot;&gt;squeeze&lt;/div&gt;" style="ellipse;whiteSpace=wrap;html=1;" parent="1" vertex="1">
          <mxGeometry x="294" y="130" width="110" height="70" as="geometry" />
        </mxCell>
        <mxCell id="wV4hB_RL8rZMmwDnRBt9-9" value="" style="edgeStyle=orthogonalEdgeStyle;rounded=0;orthogonalLoop=1;jettySize=auto;html=1;" parent="1" source="wV4hB_RL8rZMmwDnRBt9-5" target="wV4hB_RL8rZMmwDnRBt9-7" edge="1">
          <mxGeometry relative="1" as="geometry" />
        </mxCell>
        <mxCell id="wV4hB_RL8rZMmwDnRBt9-5" value="&lt;font style=&quot;font-size: 16px;&quot;&gt;matmul&lt;/font&gt;&lt;div style=&quot;font-size: 16px;&quot;&gt;squeeze&lt;br&gt;&lt;/div&gt;" style="ellipse;whiteSpace=wrap;html=1;" parent="1" vertex="1">
          <mxGeometry x="90" y="130" width="110" height="70" as="geometry" />
        </mxCell>
        <mxCell id="wV4hB_RL8rZMmwDnRBt9-7" value="&lt;span style=&quot;font-size: 16px;&quot;&gt;sigmoid&lt;/span&gt;&lt;div&gt;&lt;span style=&quot;font-size: 16px;&quot;&gt;min&lt;/span&gt;&lt;/div&gt;&lt;div&gt;&lt;span style=&quot;font-size: 16px;&quot;&gt;max&lt;/span&gt;&lt;/div&gt;" style="ellipse;whiteSpace=wrap;html=1;" parent="1" vertex="1">
          <mxGeometry x="184" y="280" width="116" height="80" as="geometry" />
        </mxCell>
        <mxCell id="sTIh-kTO3xZ_8swDwnME-1" value="" style="edgeStyle=orthogonalEdgeStyle;rounded=0;orthogonalLoop=1;jettySize=auto;html=1;" parent="1" source="sTIh-kTO3xZ_8swDwnME-2" edge="1">
          <mxGeometry relative="1" as="geometry">
            <mxPoint x="565" y="160" as="targetPoint" />
          </mxGeometry>
        </mxCell>
        <mxCell id="sTIh-kTO3xZ_8swDwnME-2" value="&lt;font style=&quot;font-size: 16px;&quot;&gt;matmul&lt;/font&gt;&lt;div style=&quot;font-size: 16px;&quot;&gt;&lt;font style=&quot;font-size: 16px;&quot;&gt;prelu&lt;/font&gt;&lt;/div&gt;" style="ellipse;whiteSpace=wrap;html=1;" parent="1" vertex="1">
          <mxGeometry x="510" y="70" width="110" height="70" as="geometry" />
        </mxCell>
        <mxCell id="sTIh-kTO3xZ_8swDwnME-3" value="&lt;font style=&quot;font-size: 16px;&quot;&gt;matmul&lt;/font&gt;&lt;div style=&quot;font-size: 16px;&quot;&gt;&lt;font style=&quot;font-size: 16px;&quot;&gt;prelu&lt;/font&gt;&lt;/div&gt;" style="ellipse;whiteSpace=wrap;html=1;" parent="1" vertex="1">
          <mxGeometry x="510" y="160" width="110" height="70" as="geometry" />
        </mxCell>
        <mxCell id="sTIh-kTO3xZ_8swDwnME-17" value="" style="edgeStyle=orthogonalEdgeStyle;rounded=0;orthogonalLoop=1;jettySize=auto;html=1;" parent="1" source="sTIh-kTO3xZ_8swDwnME-4" target="sTIh-kTO3xZ_8swDwnME-15" edge="1">
          <mxGeometry relative="1" as="geometry" />
        </mxCell>
        <mxCell id="sTIh-kTO3xZ_8swDwnME-4" value="&lt;font style=&quot;font-size: 16px;&quot;&gt;matmul:&amp;nbsp;&lt;/font&gt;&lt;span style=&quot;font-size: 16px;&quot;&gt;[a*b, 64]&lt;/span&gt;&lt;div&gt;&lt;span style=&quot;font-size: 16px;&quot;&gt;reshape:&amp;nbsp;&lt;/span&gt;&lt;span style=&quot;font-size: 16px;&quot;&gt;[a, b, 64]&lt;/span&gt;&lt;span style=&quot;font-size: 16px;&quot;&gt;&lt;br&gt;&lt;/span&gt;&lt;div style=&quot;font-size: 16px;&quot;&gt;&lt;font style=&quot;font-size: 16px;&quot;&gt;prelu&lt;/font&gt;&lt;/div&gt;&lt;/div&gt;" style="ellipse;whiteSpace=wrap;html=1;" parent="1" vertex="1">
          <mxGeometry x="265" y="660" width="220" height="90" as="geometry" />
        </mxCell>
        <mxCell id="sTIh-kTO3xZ_8swDwnME-11" value="" style="edgeStyle=orthogonalEdgeStyle;rounded=0;orthogonalLoop=1;jettySize=auto;html=1;" parent="1" source="sTIh-kTO3xZ_8swDwnME-6" target="sTIh-kTO3xZ_8swDwnME-4" edge="1">
          <mxGeometry relative="1" as="geometry" />
        </mxCell>
        <mxCell id="sTIh-kTO3xZ_8swDwnME-6" value="&lt;font style=&quot;font-size: 16px;&quot;&gt;reshape:&amp;nbsp;&lt;/font&gt;&lt;span style=&quot;font-size: 16px; background-color: initial;&quot;&gt;[a*b, c]&lt;/span&gt;" style="ellipse;whiteSpace=wrap;html=1;" parent="1" vertex="1">
          <mxGeometry x="292.5" y="570" width="165" height="50" as="geometry" />
        </mxCell>
        <mxCell id="sTIh-kTO3xZ_8swDwnME-8" value="&lt;span style=&quot;color: rgb(0, 0, 0); font-family: Helvetica; font-size: 16px; font-style: normal; font-variant-ligatures: normal; font-variant-caps: normal; font-weight: 400; letter-spacing: normal; orphans: 2; text-align: center; text-indent: 0px; text-transform: none; widows: 2; word-spacing: 0px; -webkit-text-stroke-width: 0px; white-space: normal; background-color: rgb(251, 251, 251); text-decoration-thickness: initial; text-decoration-style: initial; text-decoration-color: initial; display: inline !important; float: none;&quot;&gt;[a, b, c]&lt;/span&gt;" style="text;whiteSpace=wrap;html=1;" parent="1" vertex="1">
          <mxGeometry x="400" y="500" width="150" height="40" as="geometry" />
        </mxCell>
        <mxCell id="sTIh-kTO3xZ_8swDwnME-10" value="" style="edgeStyle=orthogonalEdgeStyle;rounded=0;orthogonalLoop=1;jettySize=auto;html=1;" parent="1" source="sTIh-kTO3xZ_8swDwnME-9" target="sTIh-kTO3xZ_8swDwnME-6" edge="1">
          <mxGeometry relative="1" as="geometry" />
        </mxCell>
        <mxCell id="sTIh-kTO3xZ_8swDwnME-9" value="&lt;span style=&quot;color: rgb(0, 0, 0); font-family: Helvetica; font-size: 16px; font-style: normal; font-variant-ligatures: normal; font-variant-caps: normal; font-weight: 400; letter-spacing: normal; orphans: 2; text-align: center; text-indent: 0px; text-transform: none; widows: 2; word-spacing: 0px; -webkit-text-stroke-width: 0px; white-space: normal; background-color: rgb(251, 251, 251); text-decoration-thickness: initial; text-decoration-style: initial; text-decoration-color: initial; display: inline !important; float: none;&quot;&gt;input&lt;/span&gt;" style="text;whiteSpace=wrap;html=1;" parent="1" vertex="1">
          <mxGeometry x="350" y="500" width="50" height="40" as="geometry" />
        </mxCell>
        <mxCell id="sTIh-kTO3xZ_8swDwnME-15" value="&lt;div style=&quot;text-align: center;&quot;&gt;&lt;span style=&quot;background-color: initial; font-size: 16px;&quot;&gt;output&lt;/span&gt;&lt;/div&gt;" style="text;whiteSpace=wrap;html=1;" parent="1" vertex="1">
          <mxGeometry x="350" y="780" width="50" height="40" as="geometry" />
        </mxCell>
        <mxCell id="bx44Nag-n4rfRC4HVCFL-1" value="" style="edgeStyle=orthogonalEdgeStyle;rounded=0;orthogonalLoop=1;jettySize=auto;html=1;" edge="1" parent="1" source="bx44Nag-n4rfRC4HVCFL-2" target="bx44Nag-n4rfRC4HVCFL-8">
          <mxGeometry relative="1" as="geometry" />
        </mxCell>
        <mxCell id="bx44Nag-n4rfRC4HVCFL-2" value="&lt;font style=&quot;font-size: 16px;&quot;&gt;matmul:&amp;nbsp;&lt;/font&gt;&lt;span style=&quot;font-size: 16px;&quot;&gt;[a*b*c, 16]&lt;/span&gt;&lt;div&gt;&lt;span style=&quot;font-size: 16px;&quot;&gt;reshape:&amp;nbsp;&lt;/span&gt;&lt;span style=&quot;font-size: 16px;&quot;&gt;[a, b, c, 16]&lt;/span&gt;&lt;span style=&quot;font-size: 16px;&quot;&gt;&lt;br&gt;&lt;/span&gt;&lt;div style=&quot;font-size: 16px;&quot;&gt;&lt;font style=&quot;font-size: 16px;&quot;&gt;prelu&lt;/font&gt;&lt;/div&gt;&lt;/div&gt;" style="ellipse;whiteSpace=wrap;html=1;" vertex="1" parent="1">
          <mxGeometry x="250" y="1080" width="220" height="90" as="geometry" />
        </mxCell>
        <mxCell id="bx44Nag-n4rfRC4HVCFL-3" value="" style="edgeStyle=orthogonalEdgeStyle;rounded=0;orthogonalLoop=1;jettySize=auto;html=1;" edge="1" parent="1" source="bx44Nag-n4rfRC4HVCFL-4" target="bx44Nag-n4rfRC4HVCFL-2">
          <mxGeometry relative="1" as="geometry" />
        </mxCell>
        <mxCell id="bx44Nag-n4rfRC4HVCFL-4" value="&lt;font style=&quot;font-size: 16px;&quot;&gt;reshape:&amp;nbsp;&lt;/font&gt;&lt;span style=&quot;font-size: 16px; background-color: initial;&quot;&gt;[a*b*c, d]&lt;/span&gt;" style="ellipse;whiteSpace=wrap;html=1;" vertex="1" parent="1">
          <mxGeometry x="277.5" y="990" width="165" height="50" as="geometry" />
        </mxCell>
        <mxCell id="bx44Nag-n4rfRC4HVCFL-5" value="&lt;span style=&quot;color: rgb(0, 0, 0); font-family: Helvetica; font-size: 16px; font-style: normal; font-variant-ligatures: normal; font-variant-caps: normal; font-weight: 400; letter-spacing: normal; orphans: 2; text-align: center; text-indent: 0px; text-transform: none; widows: 2; word-spacing: 0px; -webkit-text-stroke-width: 0px; white-space: normal; background-color: rgb(251, 251, 251); text-decoration-thickness: initial; text-decoration-style: initial; text-decoration-color: initial; display: inline !important; float: none;&quot;&gt;[a, b, c, d]&lt;/span&gt;" style="text;whiteSpace=wrap;html=1;" vertex="1" parent="1">
          <mxGeometry x="385" y="920" width="150" height="40" as="geometry" />
        </mxCell>
        <mxCell id="bx44Nag-n4rfRC4HVCFL-6" value="" style="edgeStyle=orthogonalEdgeStyle;rounded=0;orthogonalLoop=1;jettySize=auto;html=1;" edge="1" parent="1" source="bx44Nag-n4rfRC4HVCFL-7" target="bx44Nag-n4rfRC4HVCFL-4">
          <mxGeometry relative="1" as="geometry" />
        </mxCell>
        <mxCell id="bx44Nag-n4rfRC4HVCFL-7" value="&lt;span style=&quot;color: rgb(0, 0, 0); font-family: Helvetica; font-size: 16px; font-style: normal; font-variant-ligatures: normal; font-variant-caps: normal; font-weight: 400; letter-spacing: normal; orphans: 2; text-align: center; text-indent: 0px; text-transform: none; widows: 2; word-spacing: 0px; -webkit-text-stroke-width: 0px; white-space: normal; background-color: rgb(251, 251, 251); text-decoration-thickness: initial; text-decoration-style: initial; text-decoration-color: initial; display: inline !important; float: none;&quot;&gt;input&lt;/span&gt;" style="text;whiteSpace=wrap;html=1;" vertex="1" parent="1">
          <mxGeometry x="335" y="920" width="50" height="40" as="geometry" />
        </mxCell>
        <mxCell id="bx44Nag-n4rfRC4HVCFL-8" value="&lt;div style=&quot;text-align: center;&quot;&gt;&lt;span style=&quot;background-color: initial; font-size: 16px;&quot;&gt;output&lt;/span&gt;&lt;/div&gt;" style="text;whiteSpace=wrap;html=1;" vertex="1" parent="1">
          <mxGeometry x="335" y="1200" width="50" height="40" as="geometry" />
        </mxCell>
        <mxCell id="bx44Nag-n4rfRC4HVCFL-15" value="" style="edgeStyle=orthogonalEdgeStyle;rounded=0;orthogonalLoop=1;jettySize=auto;html=1;" edge="1" parent="1" source="bx44Nag-n4rfRC4HVCFL-9" target="bx44Nag-n4rfRC4HVCFL-14">
          <mxGeometry relative="1" as="geometry" />
        </mxCell>
        <mxCell id="bx44Nag-n4rfRC4HVCFL-9" value="&lt;font style=&quot;font-size: 16px;&quot;&gt;matmul:&amp;nbsp;&lt;/font&gt;&lt;span style=&quot;font-size: 16px;&quot;&gt;[a*b, 64]&lt;/span&gt;&lt;div&gt;&lt;span style=&quot;font-size: 16px;&quot;&gt;reshape:&amp;nbsp;&lt;/span&gt;&lt;span style=&quot;font-size: 16px;&quot;&gt;[a, b, 64]&lt;/span&gt;&lt;span style=&quot;font-size: 16px;&quot;&gt;&lt;br&gt;&lt;/span&gt;&lt;div style=&quot;font-size: 16px;&quot;&gt;&lt;font style=&quot;font-size: 16px;&quot;&gt;prelu&lt;/font&gt;&lt;/div&gt;&lt;/div&gt;" style="ellipse;whiteSpace=wrap;html=1;" vertex="1" parent="1">
          <mxGeometry x="58.5" y="1398" width="220" height="90" as="geometry" />
        </mxCell>
        <mxCell id="bx44Nag-n4rfRC4HVCFL-10" value="" style="edgeStyle=orthogonalEdgeStyle;rounded=0;orthogonalLoop=1;jettySize=auto;html=1;" edge="1" parent="1" source="bx44Nag-n4rfRC4HVCFL-11" target="bx44Nag-n4rfRC4HVCFL-9">
          <mxGeometry relative="1" as="geometry" />
        </mxCell>
        <mxCell id="bx44Nag-n4rfRC4HVCFL-11" value="&lt;font style=&quot;font-size: 16px;&quot;&gt;reshape:&amp;nbsp;&lt;/font&gt;&lt;span style=&quot;font-size: 16px; background-color: initial;&quot;&gt;[a*b, c]&lt;/span&gt;" style="ellipse;whiteSpace=wrap;html=1;" vertex="1" parent="1">
          <mxGeometry x="86" y="1308" width="165" height="50" as="geometry" />
        </mxCell>
        <mxCell id="bx44Nag-n4rfRC4HVCFL-12" value="" style="edgeStyle=orthogonalEdgeStyle;rounded=0;orthogonalLoop=1;jettySize=auto;html=1;" edge="1" parent="1" target="bx44Nag-n4rfRC4HVCFL-11">
          <mxGeometry relative="1" as="geometry">
            <mxPoint x="168.5" y="1278" as="sourcePoint" />
          </mxGeometry>
        </mxCell>
        <mxCell id="bx44Nag-n4rfRC4HVCFL-17" value="" style="edgeStyle=orthogonalEdgeStyle;rounded=0;orthogonalLoop=1;jettySize=auto;html=1;" edge="1" parent="1" source="bx44Nag-n4rfRC4HVCFL-14" target="bx44Nag-n4rfRC4HVCFL-16">
          <mxGeometry relative="1" as="geometry" />
        </mxCell>
        <mxCell id="bx44Nag-n4rfRC4HVCFL-14" value="&lt;font style=&quot;font-size: 16px;&quot;&gt;reshape:&amp;nbsp;&lt;/font&gt;&lt;span style=&quot;font-size: 16px;&quot;&gt;[a*b, 64]&lt;/span&gt;&lt;div&gt;&lt;span style=&quot;font-size: 16px;&quot;&gt;matmul:&amp;nbsp;&lt;/span&gt;&lt;span style=&quot;font-size: 16px;&quot;&gt;[&lt;/span&gt;&lt;span style=&quot;font-size: 16px;&quot;&gt;a*b&lt;/span&gt;&lt;span style=&quot;font-size: 16px;&quot;&gt;, 1]&lt;/span&gt;&lt;/div&gt;&lt;div&gt;&lt;span style=&quot;font-size: 16px;&quot;&gt;reshape:&amp;nbsp;&lt;/span&gt;&lt;span style=&quot;font-size: 16px;&quot;&gt;[a, b, 1]&lt;/span&gt;&lt;/div&gt;" style="ellipse;whiteSpace=wrap;html=1;" vertex="1" parent="1">
          <mxGeometry x="58.5" y="1528" width="220" height="90" as="geometry" />
        </mxCell>
        <mxCell id="bx44Nag-n4rfRC4HVCFL-16" value="&lt;font style=&quot;font-size: 16px;&quot;&gt;squeeze:&amp;nbsp;&lt;/font&gt;&lt;span style=&quot;font-size: 16px;&quot;&gt;[a, b]&lt;/span&gt;&lt;div&gt;&lt;span style=&quot;font-size: 16px;&quot;&gt;sigmoid:&amp;nbsp;&lt;/span&gt;&lt;span style=&quot;font-size: 16px;&quot;&gt;[&lt;/span&gt;&lt;span style=&quot;font-size: 16px;&quot;&gt;a, b&lt;/span&gt;&lt;span style=&quot;font-size: 16px;&quot;&gt;]&lt;/span&gt;&lt;/div&gt;" style="ellipse;whiteSpace=wrap;html=1;" vertex="1" parent="1">
          <mxGeometry x="62.5" y="1649" width="212" height="65" as="geometry" />
        </mxCell>
        <mxCell id="bx44Nag-n4rfRC4HVCFL-19" value="" style="rounded=0;whiteSpace=wrap;html=1;fillColor=none;strokeColor=#B5739D;" vertex="1" parent="1">
          <mxGeometry x="44.75" y="1291" width="245.75" height="213" as="geometry" />
        </mxCell>
        <mxCell id="bx44Nag-n4rfRC4HVCFL-20" value="&lt;font color=&quot;#b5739d&quot;&gt;DNN Layer&lt;/font&gt;" style="text;html=1;align=center;verticalAlign=middle;whiteSpace=wrap;rounded=0;" vertex="1" parent="1">
          <mxGeometry x="213" y="1288" width="87" height="30" as="geometry" />
        </mxCell>
        <mxCell id="bx44Nag-n4rfRC4HVCFL-21" value="" style="edgeStyle=orthogonalEdgeStyle;rounded=0;orthogonalLoop=1;jettySize=auto;html=1;" edge="1" parent="1" source="bx44Nag-n4rfRC4HVCFL-22" target="bx44Nag-n4rfRC4HVCFL-27">
          <mxGeometry relative="1" as="geometry" />
        </mxCell>
        <mxCell id="bx44Nag-n4rfRC4HVCFL-22" value="&lt;font style=&quot;font-size: 16px;&quot;&gt;matmul:&amp;nbsp;&lt;/font&gt;&lt;span style=&quot;font-size: 16px;&quot;&gt;[a*b, 64]&lt;/span&gt;&lt;div&gt;&lt;span style=&quot;font-size: 16px;&quot;&gt;reshape:&amp;nbsp;&lt;/span&gt;&lt;span style=&quot;font-size: 16px;&quot;&gt;[a, b, 64]&lt;/span&gt;&lt;span style=&quot;font-size: 16px;&quot;&gt;&lt;br&gt;&lt;/span&gt;&lt;div style=&quot;font-size: 16px;&quot;&gt;&lt;font style=&quot;font-size: 16px;&quot;&gt;prelu&lt;/font&gt;&lt;/div&gt;&lt;/div&gt;" style="ellipse;whiteSpace=wrap;html=1;" vertex="1" parent="1">
          <mxGeometry x="474.75" y="1390" width="220" height="90" as="geometry" />
        </mxCell>
        <mxCell id="bx44Nag-n4rfRC4HVCFL-23" value="" style="edgeStyle=orthogonalEdgeStyle;rounded=0;orthogonalLoop=1;jettySize=auto;html=1;" edge="1" parent="1" source="bx44Nag-n4rfRC4HVCFL-24" target="bx44Nag-n4rfRC4HVCFL-22">
          <mxGeometry relative="1" as="geometry" />
        </mxCell>
        <mxCell id="bx44Nag-n4rfRC4HVCFL-24" value="&lt;font style=&quot;font-size: 16px;&quot;&gt;reshape:&amp;nbsp;&lt;/font&gt;&lt;span style=&quot;font-size: 16px; background-color: initial;&quot;&gt;[a*b, c]&lt;/span&gt;" style="ellipse;whiteSpace=wrap;html=1;" vertex="1" parent="1">
          <mxGeometry x="502.25" y="1300" width="165" height="50" as="geometry" />
        </mxCell>
        <mxCell id="bx44Nag-n4rfRC4HVCFL-25" value="" style="edgeStyle=orthogonalEdgeStyle;rounded=0;orthogonalLoop=1;jettySize=auto;html=1;" edge="1" parent="1" target="bx44Nag-n4rfRC4HVCFL-24">
          <mxGeometry relative="1" as="geometry">
            <mxPoint x="584.75" y="1270" as="sourcePoint" />
          </mxGeometry>
        </mxCell>
        <mxCell id="bx44Nag-n4rfRC4HVCFL-26" value="" style="edgeStyle=orthogonalEdgeStyle;rounded=0;orthogonalLoop=1;jettySize=auto;html=1;" edge="1" parent="1" source="bx44Nag-n4rfRC4HVCFL-27" target="bx44Nag-n4rfRC4HVCFL-28">
          <mxGeometry relative="1" as="geometry" />
        </mxCell>
        <mxCell id="bx44Nag-n4rfRC4HVCFL-27" value="&lt;font style=&quot;font-size: 16px;&quot;&gt;reshape:&amp;nbsp;&lt;/font&gt;&lt;span style=&quot;font-size: 16px;&quot;&gt;[a*b, 64]&lt;/span&gt;&lt;div&gt;&lt;span style=&quot;font-size: 16px;&quot;&gt;matmul:&amp;nbsp;&lt;/span&gt;&lt;span style=&quot;font-size: 16px;&quot;&gt;[&lt;/span&gt;&lt;span style=&quot;font-size: 16px;&quot;&gt;a*b&lt;/span&gt;&lt;span style=&quot;font-size: 16px;&quot;&gt;, 1]&lt;/span&gt;&lt;/div&gt;&lt;div&gt;&lt;span style=&quot;font-size: 16px;&quot;&gt;reshape:&amp;nbsp;&lt;/span&gt;&lt;span style=&quot;font-size: 16px;&quot;&gt;[a, b, 1]&lt;/span&gt;&lt;/div&gt;" style="ellipse;whiteSpace=wrap;html=1;" vertex="1" parent="1">
          <mxGeometry x="474.75" y="1520" width="220" height="90" as="geometry" />
        </mxCell>
        <mxCell id="bx44Nag-n4rfRC4HVCFL-32" value="" style="edgeStyle=orthogonalEdgeStyle;rounded=0;orthogonalLoop=1;jettySize=auto;html=1;" edge="1" parent="1" source="bx44Nag-n4rfRC4HVCFL-28" target="bx44Nag-n4rfRC4HVCFL-31">
          <mxGeometry relative="1" as="geometry" />
        </mxCell>
        <mxCell id="bx44Nag-n4rfRC4HVCFL-28" value="&lt;font style=&quot;font-size: 16px;&quot;&gt;squeeze:&amp;nbsp;&lt;/font&gt;&lt;span style=&quot;font-size: 16px;&quot;&gt;[a, b]&lt;/span&gt;&lt;div&gt;&lt;span style=&quot;font-size: 16px;&quot;&gt;sigmoid:&amp;nbsp;&lt;/span&gt;&lt;span style=&quot;font-size: 16px;&quot;&gt;[&lt;/span&gt;&lt;span style=&quot;font-size: 16px;&quot;&gt;a, b&lt;/span&gt;&lt;span style=&quot;font-size: 16px;&quot;&gt;]&lt;/span&gt;&lt;/div&gt;" style="ellipse;whiteSpace=wrap;html=1;" vertex="1" parent="1">
          <mxGeometry x="478.75" y="1641" width="212" height="65" as="geometry" />
        </mxCell>
        <mxCell id="bx44Nag-n4rfRC4HVCFL-29" value="" style="rounded=0;whiteSpace=wrap;html=1;fillColor=none;strokeColor=#B5739D;" vertex="1" parent="1">
          <mxGeometry x="461" y="1283" width="245.75" height="213" as="geometry" />
        </mxCell>
        <mxCell id="bx44Nag-n4rfRC4HVCFL-30" value="&lt;font color=&quot;#b5739d&quot;&gt;DNN Layer&lt;/font&gt;" style="text;html=1;align=center;verticalAlign=middle;whiteSpace=wrap;rounded=0;" vertex="1" parent="1">
          <mxGeometry x="629.25" y="1280" width="87" height="30" as="geometry" />
        </mxCell>
        <mxCell id="bx44Nag-n4rfRC4HVCFL-31" value="&lt;span style=&quot;font-size: 16px;&quot;&gt;min:&amp;nbsp;&lt;/span&gt;&lt;span style=&quot;font-size: 16px;&quot;&gt;[a, b]&lt;/span&gt;&lt;div&gt;&lt;span style=&quot;font-size: 16px;&quot;&gt;max:&amp;nbsp;&lt;/span&gt;&lt;span style=&quot;font-size: 16px; background-color: initial;&quot;&gt;[a, b]&lt;/span&gt;&lt;/div&gt;&lt;div&gt;&lt;span style=&quot;font-size: 16px;&quot;&gt;sub:&amp;nbsp;&lt;/span&gt;&lt;span style=&quot;font-size: 16px; background-color: initial;&quot;&gt;[a, b]&lt;/span&gt;&lt;/div&gt;&lt;div&gt;&lt;span style=&quot;font-size: 16px;&quot;&gt;div:&amp;nbsp;&lt;/span&gt;&lt;span style=&quot;font-size: 16px; background-color: initial;&quot;&gt;[a, b]&lt;/span&gt;&lt;/div&gt;" style="ellipse;whiteSpace=wrap;html=1;" vertex="1" parent="1">
          <mxGeometry x="478.75" y="1737" width="211.25" height="94" as="geometry" />
        </mxCell>
        <mxCell id="bx44Nag-n4rfRC4HVCFL-33" value="" style="edgeStyle=orthogonalEdgeStyle;rounded=0;orthogonalLoop=1;jettySize=auto;html=1;" edge="1" parent="1" source="bx44Nag-n4rfRC4HVCFL-34">
          <mxGeometry relative="1" as="geometry">
            <mxPoint x="300.5" y="2642" as="targetPoint" />
          </mxGeometry>
        </mxCell>
        <mxCell id="bx44Nag-n4rfRC4HVCFL-34" value="&lt;font style=&quot;font-size: 16px;&quot;&gt;matmul:&amp;nbsp;&lt;/font&gt;&lt;span style=&quot;font-size: 16px;&quot;&gt;[a*b, 1024]&lt;/span&gt;&lt;div&gt;&lt;span style=&quot;font-size: 16px;&quot;&gt;reshape:&amp;nbsp;&lt;/span&gt;&lt;span style=&quot;font-size: 16px;&quot;&gt;[a, b, 1024]&lt;/span&gt;&lt;span style=&quot;font-size: 16px;&quot;&gt;&lt;br&gt;&lt;/span&gt;&lt;div style=&quot;font-size: 16px;&quot;&gt;&lt;font style=&quot;font-size: 16px;&quot;&gt;prelu&lt;/font&gt;&lt;/div&gt;&lt;/div&gt;" style="ellipse;whiteSpace=wrap;html=1;" vertex="1" parent="1">
          <mxGeometry x="190.5" y="2512" width="220" height="90" as="geometry" />
        </mxCell>
        <mxCell id="bx44Nag-n4rfRC4HVCFL-35" value="" style="edgeStyle=orthogonalEdgeStyle;rounded=0;orthogonalLoop=1;jettySize=auto;html=1;" edge="1" parent="1" source="bx44Nag-n4rfRC4HVCFL-36" target="bx44Nag-n4rfRC4HVCFL-34">
          <mxGeometry relative="1" as="geometry" />
        </mxCell>
        <mxCell id="bx44Nag-n4rfRC4HVCFL-36" value="&lt;font style=&quot;font-size: 16px;&quot;&gt;reshape:&amp;nbsp;&lt;/font&gt;&lt;span style=&quot;font-size: 16px; background-color: initial;&quot;&gt;[a*b, 2792]&lt;/span&gt;" style="ellipse;whiteSpace=wrap;html=1;" vertex="1" parent="1">
          <mxGeometry x="218" y="2422" width="165" height="50" as="geometry" />
        </mxCell>
        <mxCell id="bx44Nag-n4rfRC4HVCFL-37" value="" style="edgeStyle=orthogonalEdgeStyle;rounded=0;orthogonalLoop=1;jettySize=auto;html=1;exitX=0.5;exitY=1;exitDx=0;exitDy=0;" edge="1" parent="1" target="bx44Nag-n4rfRC4HVCFL-36" source="bx44Nag-n4rfRC4HVCFL-46">
          <mxGeometry relative="1" as="geometry">
            <mxPoint x="300.5" y="2392" as="sourcePoint" />
          </mxGeometry>
        </mxCell>
        <mxCell id="bx44Nag-n4rfRC4HVCFL-41" value="" style="rounded=0;whiteSpace=wrap;html=1;fillColor=none;strokeColor=#B5739D;" vertex="1" parent="1">
          <mxGeometry x="179.57" y="2406" width="245.75" height="202" as="geometry" />
        </mxCell>
        <mxCell id="bx44Nag-n4rfRC4HVCFL-42" value="&lt;font color=&quot;#b5739d&quot;&gt;DNN Layer&lt;/font&gt;" style="text;html=1;align=center;verticalAlign=middle;whiteSpace=wrap;rounded=0;" vertex="1" parent="1">
          <mxGeometry x="345" y="2402" width="87" height="30" as="geometry" />
        </mxCell>
        <mxCell id="bx44Nag-n4rfRC4HVCFL-45" value="" style="edgeStyle=orthogonalEdgeStyle;rounded=0;orthogonalLoop=1;jettySize=auto;html=1;" edge="1" parent="1" source="bx44Nag-n4rfRC4HVCFL-43" target="bx44Nag-n4rfRC4HVCFL-44">
          <mxGeometry relative="1" as="geometry" />
        </mxCell>
        <mxCell id="bx44Nag-n4rfRC4HVCFL-43" value="&lt;font style=&quot;font-size: 16px;&quot;&gt;reshape:&amp;nbsp;&lt;/font&gt;&lt;span style=&quot;font-size: 16px;&quot;&gt;[a*b, c]&lt;/span&gt;&lt;div&gt;&lt;span style=&quot;font-size: 16px;&quot;&gt;matmul:&amp;nbsp;&lt;/span&gt;&lt;span style=&quot;font-size: 16px;&quot;&gt;[&lt;/span&gt;&lt;span style=&quot;font-size: 16px;&quot;&gt;a*b&lt;/span&gt;&lt;span style=&quot;font-size: 16px;&quot;&gt;, 512]&lt;/span&gt;&lt;/div&gt;&lt;div&gt;&lt;span style=&quot;font-size: 16px;&quot;&gt;reshape:&amp;nbsp;&lt;/span&gt;&lt;span style=&quot;font-size: 16px;&quot;&gt;[a, b, 512]&lt;/span&gt;&lt;/div&gt;&lt;div&gt;&lt;span style=&quot;font-size: 16px;&quot;&gt;relu:&amp;nbsp;&lt;/span&gt;&lt;span style=&quot;font-size: 16px; background-color: initial;&quot;&gt;[a, b, 512]&lt;/span&gt;&lt;/div&gt;" style="ellipse;whiteSpace=wrap;html=1;" vertex="1" parent="1">
          <mxGeometry x="187.88" y="1995" width="225.25" height="110" as="geometry" />
        </mxCell>
        <mxCell id="bx44Nag-n4rfRC4HVCFL-47" value="" style="edgeStyle=orthogonalEdgeStyle;rounded=0;orthogonalLoop=1;jettySize=auto;html=1;" edge="1" parent="1" source="bx44Nag-n4rfRC4HVCFL-44" target="bx44Nag-n4rfRC4HVCFL-46">
          <mxGeometry relative="1" as="geometry" />
        </mxCell>
        <mxCell id="bx44Nag-n4rfRC4HVCFL-44" value="&lt;font style=&quot;font-size: 16px;&quot;&gt;reshape:&amp;nbsp;&lt;/font&gt;&lt;span style=&quot;font-size: 16px;&quot;&gt;[a*b, 512]&lt;/span&gt;&lt;div&gt;&lt;span style=&quot;font-size: 16px;&quot;&gt;matmul:&amp;nbsp;&lt;/span&gt;&lt;span style=&quot;font-size: 16px;&quot;&gt;[&lt;/span&gt;&lt;span style=&quot;font-size: 16px;&quot;&gt;a*b&lt;/span&gt;&lt;span style=&quot;font-size: 16px;&quot;&gt;, 2792]&lt;/span&gt;&lt;/div&gt;&lt;div&gt;&lt;span style=&quot;font-size: 16px;&quot;&gt;reshape:&amp;nbsp;&lt;/span&gt;&lt;span style=&quot;font-size: 16px;&quot;&gt;[a, b, 2792]&lt;/span&gt;&lt;/div&gt;" style="ellipse;whiteSpace=wrap;html=1;" vertex="1" parent="1">
          <mxGeometry x="189.88" y="2140" width="220" height="90" as="geometry" />
        </mxCell>
        <mxCell id="bx44Nag-n4rfRC4HVCFL-46" value="&lt;font style=&quot;font-size: 16px;&quot;&gt;sigmoid:&amp;nbsp;&lt;/font&gt;&lt;span style=&quot;font-size: 16px;&quot;&gt;[a, b, 2792]&lt;/span&gt;&lt;div&gt;&lt;span style=&quot;font-size: 16px;&quot;&gt;mul:&amp;nbsp;&lt;/span&gt;&lt;span style=&quot;font-size: 16px;&quot;&gt;[&lt;/span&gt;&lt;span style=&quot;font-size: 16px;&quot;&gt;a, b, 2792&lt;/span&gt;&lt;span style=&quot;font-size: 16px;&quot;&gt;]&lt;/span&gt;&lt;/div&gt;&lt;div&gt;&lt;span style=&quot;font-size: 16px;&quot;&gt;mul:&amp;nbsp;&lt;/span&gt;&lt;span style=&quot;font-size: 16px;&quot;&gt;[&lt;/span&gt;&lt;span style=&quot;font-size: 16px;&quot;&gt;a, b, 2792&lt;/span&gt;&lt;span style=&quot;font-size: 16px;&quot;&gt;]&lt;/span&gt;&lt;br&gt;&lt;/div&gt;" style="ellipse;whiteSpace=wrap;html=1;" vertex="1" parent="1">
          <mxGeometry x="190.51" y="2269" width="220" height="90" as="geometry" />
        </mxCell>
        <mxCell id="bx44Nag-n4rfRC4HVCFL-48" value="" style="rounded=0;whiteSpace=wrap;html=1;fillColor=none;strokeColor=#B5739D;" vertex="1" parent="1">
          <mxGeometry x="152" y="1978" width="300.88" height="393" as="geometry" />
        </mxCell>
        <mxCell id="bx44Nag-n4rfRC4HVCFL-49" value="&lt;font style=&quot;font-size: 14px;&quot; color=&quot;#b5739d&quot;&gt;simple_gate_network&lt;/font&gt;" style="text;html=1;align=center;verticalAlign=middle;whiteSpace=wrap;rounded=0;" vertex="1" parent="1">
          <mxGeometry x="292.5" y="1973" width="174" height="30" as="geometry" />
        </mxCell>
        <mxCell id="bx44Nag-n4rfRC4HVCFL-51" value="" style="endArrow=classic;html=1;rounded=0;entryX=0.055;entryY=0.85;entryDx=0;entryDy=0;entryPerimeter=0;" edge="1" parent="1" target="bx44Nag-n4rfRC4HVCFL-49">
          <mxGeometry width="50" height="50" relative="1" as="geometry">
            <mxPoint x="302" y="1938" as="sourcePoint" />
            <mxPoint x="436" y="2281" as="targetPoint" />
          </mxGeometry>
        </mxCell>
      </root>
    </mxGraphModel>
  </diagram>
</mxfile>
